<?xml version="1.0" encoding="UTF-8"?>
<svg version="1.1" xmlns="http://www.w3.org/2000/svg" width="247" height="253">
<path d="M0 0 C1.17030762 0.56968506 1.17030762 0.56968506 2.36425781 1.15087891 C12.63755899 6.16463393 22.80355434 11.37831218 32.90063477 16.73706055 C40.62265017 20.82620617 48.39588229 24.81401952 56.16976929 28.80331421 C58.48685375 29.99324877 60.80282534 31.18532014 63.1184082 32.37817383 C64.62319057 33.15319457 66.12799173 33.92817883 67.6328125 34.703125 C68.36273911 35.07902267 69.09266571 35.45492035 69.8447113 35.84220886 C73.98768327 37.97314666 78.14065823 40.08226933 82.3046875 42.171875 C83.99482558 43.0311833 85.68493344 43.89055104 87.375 44.75 C88.10396484 45.10707031 88.83292969 45.46414062 89.58398438 45.83203125 C94.21641495 48.20925904 97.05708167 50.66158693 100 55 C100.79347782 58.32585384 100.13625303 60.81234426 99 64 C93.77006288 70.54327196 85.74630434 74.0385349 78.40539551 77.68011475 C74.92784266 79.40551034 71.469573 81.16897965 68.0078125 82.92578125 C67.31876831 83.27402954 66.62972412 83.62227783 65.9197998 83.9810791 C59.96538236 86.99644579 54.09382018 90.1504749 48.25 93.375 C33.95609613 101.23927952 19.5324675 108.8145092 4.90966797 116.04882812 C2.94585887 117.02696674 0.98978525 118.01927973 -0.96484375 119.015625 C-1.60188232 119.33893799 -2.2389209 119.66225098 -2.89526367 119.99536133 C-4.63443323 120.87879628 -6.37196371 121.76545589 -8.109375 122.65234375 C-15.62667023 126.15702869 -25.20097066 126.75250581 -33.1739502 124.34301758 C-38.53915386 122.24540348 -43.56977684 119.49432745 -48.625 116.75 C-50.22408397 115.91280832 -51.82460844 115.0783627 -53.42651367 114.24658203 C-57.97402197 111.87295169 -62.4899971 109.44395197 -67 107 C-68.08716309 106.41508789 -69.17432617 105.83017578 -70.29443359 105.22753906 C-73.81386507 103.33027468 -77.32655674 101.42235197 -80.82226562 99.48168945 C-88.00159083 95.49765607 -95.28141365 91.72847156 -102.58685303 87.98287964 C-122.07522405 77.98715973 -122.07522405 77.98715973 -131.6875 72.8125 C-132.48816895 72.39154053 -133.28883789 71.97058105 -134.11376953 71.53686523 C-138.3265639 69.24062709 -141.41360882 67.1903547 -144 63 C-144.53125 60.9375 -144.53125 60.9375 -144.5 59 C-144.5103125 58.360625 -144.520625 57.72125 -144.53125 57.0625 C-143.54167057 53.2206034 -141.32427021 50.88450879 -138.0546875 48.70068359 C-135.64902615 47.30067609 -133.21315416 45.98366584 -130.75 44.6875 C-129.85321533 44.20531006 -128.95643066 43.72312012 -128.0324707 43.22631836 C-122.16143384 40.0881075 -116.23896567 37.05912081 -110.26782227 34.11645508 C-104.5298493 31.28660556 -98.85576364 28.34172982 -93.1875 25.375 C-92.22513428 24.87194336 -91.26276855 24.36888672 -90.27124023 23.85058594 C-86.05896437 21.64809773 -81.84748085 19.44410605 -77.63720703 17.23779297 C-54.67396115 5.2143845 -54.67396115 5.2143845 -43.4375 -0.25 C-42.71916992 -0.60860107 -42.00083984 -0.96720215 -41.26074219 -1.33666992 C-27.21242936 -8.04214693 -13.72281886 -6.77794576 0 0 Z " fill="#96C525" transform="translate(145,10)"/>
<path d="M0 0 C1.23856247 0.64009635 2.46936267 1.29536354 3.69335938 1.96289062 C4.37531372 2.31919556 5.05726807 2.67550049 5.7598877 3.04260254 C7.24231344 3.81731632 8.72183662 4.59760419 10.19873047 5.3828125 C13.42845141 7.09040353 16.68380807 8.74609313 19.93896484 10.40454102 C25.19657857 13.08435383 30.44280897 15.78644226 35.69189453 18.48291016 C40.83433195 21.12387774 45.97932979 23.75971633 51.12841797 26.38769531 C52.71193875 27.19727151 54.29433213 28.00905737 55.87548828 28.82324219 C58.04104163 29.9380786 60.21041911 31.04510587 62.38085938 32.15039062 C63.00641724 32.47479126 63.6319751 32.79919189 64.27648926 33.13342285 C75.41304972 38.7678706 87.98380272 39.47906264 99.89257812 35.71289062 C103.86386921 34.07040687 107.43659119 31.92477438 111.09570312 29.68164062 C115.00561579 27.29819283 119.04204634 25.17608439 123.09960938 23.05664062 C123.88335937 22.64704102 124.66710937 22.23744141 125.47460938 21.81542969 C127.19420979 20.91874258 128.91446032 20.02330145 130.63525391 19.12890625 C133.8851718 17.43805211 137.13097684 15.73942353 140.37695312 14.04101562 C142.1722939 13.10391921 143.9679716 12.1674734 145.7638855 11.23147583 C147.48802433 10.33224122 149.21094947 9.43068075 150.93383789 8.52905273 C154.12424568 6.87053301 157.32893112 5.24295216 160.53710938 3.61914062 C161.50777344 3.10303223 162.4784375 2.58692383 163.47851562 2.05517578 C169.50791747 -0.98573081 173.97088651 -2.52237781 180.53710938 -0.38085938 C184.48140981 1.30884544 188.18405489 3.31240429 191.91210938 5.43164062 C192.89566406 5.96595703 193.87921875 6.50027344 194.89257812 7.05078125 C203.18572832 11.66249884 203.18572832 11.66249884 205.53710938 15.61914062 C206.04714921 20.97455886 206.03132262 24.30961096 202.53710938 28.61914062 C198.51323526 32.24120965 194.77261913 34.71157657 189.84960938 37.05664062 C188.43578566 37.74325755 187.02311513 38.43225186 185.61132812 39.12304688 C184.81903809 39.50992676 184.02674805 39.89680664 183.21044922 40.29541016 C177.82676345 42.96119502 172.49595717 45.73034523 167.16210938 48.49414062 C166.27516388 48.95365616 166.27516388 48.95365616 165.37030029 49.42245483 C158.51712042 52.97714377 151.70034688 56.57878155 144.97460938 60.36914062 C136.82784131 64.95629376 128.59357884 69.37625561 120.34011841 73.7677002 C118.8229182 74.57566736 117.30667702 75.38543835 115.79147339 76.19714355 C88.56752783 90.77222317 88.56752783 90.77222317 72.61523438 86.91210938 C69.44293765 85.68811628 66.53693927 84.22534876 63.53710938 82.61914062 C62.79315918 82.22146484 62.04920898 81.82378906 61.28271484 81.4140625 C56.72103841 78.96524694 52.18341165 76.47523556 47.65429688 73.96679688 C40.09435516 69.79907337 32.42431786 65.84700605 24.74926758 61.89648438 C23.25012817 61.12304688 23.25012817 61.12304688 21.72070312 60.33398438 C20.83954834 59.88144287 19.95839355 59.42890137 19.05053711 58.96264648 C16.47975786 57.58848445 13.96136159 56.24047659 11.53710938 54.61914062 C11.53710938 53.95914063 11.53710938 53.29914063 11.53710938 52.61914062 C10.69704346 52.52850342 9.85697754 52.43786621 8.99145508 52.34448242 C5.02056516 51.51067693 1.79779319 49.93023762 -1.73242188 48.01367188 C-2.41286057 47.6519841 -3.09329926 47.29029633 -3.7943573 46.91764832 C-5.22941557 46.15252705 -6.66227118 45.3832617 -8.09301758 44.61010742 C-10.25339236 43.44351954 -12.4208371 42.29106869 -14.58984375 41.140625 C-34.8228603 30.34799363 -34.8228603 30.34799363 -38.46289062 24.61914062 C-38.98105463 20.62187548 -38.74179236 18.24033086 -37.08789062 14.55664062 C-33.41412151 10.44551805 -29.29842726 8.19177254 -24.46289062 5.61914062 C-23.89618652 5.30734863 -23.32948242 4.99555664 -22.74560547 4.67431641 C-20.93150638 3.67904394 -19.10612904 2.70842082 -17.27539062 1.74414062 C-16.14746094 1.14859375 -15.01953125 0.55304688 -13.85742188 -0.06054688 C-8.78839565 -2.03215892 -5.0736746 -2.02317425 0 0 Z " fill="#96C624" transform="translate(39.462890625,158.380859375)"/>
<path d="M0 0 C0.72522354 0.3767688 1.45044708 0.7535376 2.19764709 1.14172363 C4.50389463 2.34338396 6.80071981 3.56190364 9.09765625 4.78125 C10.60292593 5.56883642 12.10878198 6.35530318 13.61523438 7.140625 C18.13916886 9.50400228 22.65084622 11.8901129 27.16015625 14.28125 C29.45944076 15.49961774 31.75878185 16.71787836 34.0582428 17.93591309 C35.46831542 18.68317302 36.87804542 19.43108004 38.28733826 20.17980957 C61.82304077 33.48493096 61.82304077 33.48493096 87.96459961 33.2890625 C93.10360019 31.66832796 97.76867925 29.33290576 102.53515625 26.84375 C103.56825928 26.31587891 104.6013623 25.78800781 105.66577148 25.24414062 C114.39539968 20.75450343 123.00564357 16.04911682 131.609375 11.32421875 C137.57040417 8.05361285 143.53805949 4.79784307 149.53515625 1.59375 C150.48011963 1.07619141 151.42508301 0.55863281 152.39868164 0.02539062 C158.20386072 -3.05237986 163.58422646 -5.69871319 170.3125 -4.2578125 C170.90160156 -3.95617187 171.49070313 -3.65453125 172.09765625 -3.34375 C172.82855469 -2.97636719 173.55945313 -2.60898438 174.3125 -2.23046875 C175.72208984 -1.48216797 175.72208984 -1.48216797 177.16015625 -0.71875 C178.59826418 0.00528666 180.03713691 0.72780524 181.4765625 1.44921875 C183.0386861 2.24558265 184.59987597 3.04378059 186.16015625 3.84375 C187.31052368 4.42552002 187.31052368 4.42552002 188.48413086 5.01904297 C189.20221924 5.39561035 189.92030762 5.77217773 190.66015625 6.16015625 C191.30984375 6.4960376 191.95953125 6.83191895 192.62890625 7.17797852 C194.16015625 8.28125 194.16015625 8.28125 195.16015625 11.28125 C195.82015625 11.28125 196.48015625 11.28125 197.16015625 11.28125 C198.71492315 14.39078379 198.44660062 16.84391761 198.16015625 20.28125 C193.84490741 30.14467593 181.32641578 34.31200654 172.1875 38.7890625 C165.69302301 41.98422073 159.27354774 45.32604871 152.84765625 48.65625 C152.21499847 48.98403442 151.5823407 49.31181885 150.93051147 49.64953613 C146.67193386 51.85666655 142.41555727 54.06800151 138.16015625 56.28125 C137.22107422 56.76948242 136.28199219 57.25771484 135.31445312 57.76074219 C132.9071167 59.01429381 130.50164085 60.27128379 128.09765625 61.53125 C126.98753174 62.11253662 126.98753174 62.11253662 125.85498047 62.70556641 C121.90837 64.78615898 118.00170377 66.92357121 114.12109375 69.125 C84.44910353 85.93293909 84.44910353 85.93293909 68.16015625 83.28125 C61.48493456 81.07008281 55.17401456 77.9494588 48.91015625 74.78125 C48.05010986 74.34893066 47.19006348 73.91661133 46.30395508 73.47119141 C39.16701035 69.854039 32.15195336 66.03178613 25.14746094 62.16601562 C17.05940038 57.72276518 8.87077018 53.49167434 0.66015625 49.28125 C-8.74391181 44.45476133 -18.11812603 39.58613188 -27.40234375 34.53125 C-28.28148438 34.05429688 -29.160625 33.57734375 -30.06640625 33.0859375 C-43.36528249 25.79368523 -43.36528249 25.79368523 -45.83984375 21.28125 C-46.125 18.87890625 -46.125 18.87890625 -45.90234375 16.34375 C-45.85207031 15.50972656 -45.80179688 14.67570312 -45.75 13.81640625 C-43.35720154 7.15148694 -35.11879842 4.0649744 -29.21484375 1.03125 C-28.36921875 0.58523437 -27.52359375 0.13921875 -26.65234375 -0.3203125 C-16.71396957 -5.49328329 -9.88712359 -5.30977766 0 0 Z " fill="#95C624" transform="translate(46.83984375,106.71875)"/>
<path d="M0 0 C2.54516438 1.01490762 4.77162825 2.04325662 7.15625 3.34375 C7.83820435 3.70005493 8.52015869 4.05635986 9.22277832 4.42346191 C10.70520406 5.1981757 12.18472725 5.97846356 13.66162109 6.76367188 C16.89134204 8.4712629 20.14669869 10.12695251 23.40185547 11.78540039 C28.65946919 14.46521321 33.90569959 17.16730163 39.15478516 19.86376953 C44.29722257 22.50473711 49.44222041 25.1405757 54.59130859 27.76855469 C56.17482937 28.57813089 57.75722276 29.38991675 59.33837891 30.20410156 C61.50393225 31.31893797 63.67330973 32.42596525 65.84375 33.53125 C66.46930786 33.85565063 67.09486572 34.18005127 67.73937988 34.51428223 C78.87594034 40.14872997 91.44669334 40.85992202 103.35546875 37.09375 C107.32675984 35.45126624 110.89948181 33.30563376 114.55859375 31.0625 C118.46850641 28.67905221 122.50493696 26.55694376 126.5625 24.4375 C127.34625 24.02790039 128.13 23.61830078 128.9375 23.19628906 C130.65710041 22.29960195 132.37735094 21.40416082 134.09814453 20.50976562 C137.34806242 18.81891149 140.59386746 17.1202829 143.83984375 15.421875 C145.63518453 14.48477858 147.43086223 13.54833278 149.22677612 12.61233521 C150.95091495 11.71310059 152.67384009 10.81154013 154.39672852 9.90991211 C159.56153272 7.22501093 164.745148 4.58288503 170 2.078125 C170.845625 1.67368164 171.69125 1.26923828 172.5625 0.85253906 C176.45858356 -0.51015362 180.09417801 -0.2287065 184 1 C184.99 1.66 185.98 2.32 187 3 C186.85424805 4.796875 186.85424805 4.796875 186 7 C183.57348633 8.640625 183.57348633 8.640625 180.33203125 10.25 C179.45885506 10.69170532 179.45885506 10.69170532 178.56803894 11.14233398 C177.31213018 11.77587458 176.05306172 12.40318188 174.79125977 13.02490234 C172.11410944 14.34415446 169.45218491 15.69281876 166.78927612 17.04052734 C165.4398631 17.72331814 164.08969959 18.40462768 162.73880005 19.08447266 C157.08937071 21.93265997 151.53339635 24.93256231 146 28 C137.98456305 32.4031225 129.93907659 36.74730228 121.84155273 40.99755859 C120.59696241 41.65280771 119.35435184 42.31183475 118.11401367 42.97509766 C107.84469842 48.45976555 97.17946321 53.60631098 85.3125 53.5 C84.15363281 53.5103125 82.99476562 53.520625 81.80078125 53.53125 C72.51021886 52.23267191 64.03509801 47.17774775 55.75 43 C54.60958252 42.42749512 53.46916504 41.85499023 52.29418945 41.26513672 C44.30079086 37.22644886 36.41559153 33.02018915 28.58154297 28.68188477 C23.202273 25.71365775 17.78623862 22.83166689 12.32421875 20.01953125 C11.66554306 19.6804071 11.00686737 19.34128296 10.32823181 18.99188232 C7.07005494 17.31692777 3.80853791 15.64874852 0.54370117 13.98681641 C-0.65056914 13.37535629 -1.84482442 12.76386681 -3.0390625 12.15234375 C-4.09303223 11.61601318 -5.14700195 11.07968262 -6.23291016 10.52709961 C-8.70955392 9.16029118 -10.91376594 7.91065991 -13 6 C-13 5.01 -13 4.02 -13 3 C-8.39009638 0.30151983 -5.31898444 -0.43141946 0 0 Z " fill="#60940F" transform="translate(36,157)"/>
<path d="M0 0 C0.72522354 0.3767688 1.45044708 0.7535376 2.19764709 1.14172363 C4.50389463 2.34338396 6.80071981 3.56190364 9.09765625 4.78125 C10.60292593 5.56883642 12.10878198 6.35530318 13.61523438 7.140625 C18.13916886 9.50400228 22.65084622 11.8901129 27.16015625 14.28125 C29.45944076 15.49961774 31.75878185 16.71787836 34.0582428 17.93591309 C35.46831542 18.68317302 36.87804542 19.43108004 38.28733826 20.17980957 C61.82304077 33.48493096 61.82304077 33.48493096 87.96459961 33.2890625 C93.10360019 31.66832796 97.76867925 29.33290576 102.53515625 26.84375 C104.08481079 26.05194336 104.08481079 26.05194336 105.66577148 25.24414062 C114.39539968 20.75450343 123.00564357 16.04911682 131.609375 11.32421875 C137.57040417 8.05361285 143.53805949 4.79784307 149.53515625 1.59375 C150.48011963 1.07619141 151.42508301 0.55863281 152.39868164 0.02539062 C158.24986243 -3.0767689 163.70843342 -5.7940817 170.47265625 -4.16015625 C172.03515625 -3.34635417 173.59765625 -2.53255208 175.16015625 -1.71875 C175.16015625 -0.39875 175.16015625 0.92125 175.16015625 2.28125 C173.99166138 2.88428955 173.99166138 2.88428955 172.79956055 3.49951172 C154.73777713 12.8142678 154.73777713 12.8142678 136.72265625 22.21875 C135.65313721 22.77864624 135.65313721 22.77864624 134.56201172 23.34985352 C130.29394022 25.59448494 126.0529871 27.88344252 121.82887268 30.20988464 C119.20353856 31.65336383 116.5721337 33.08559516 113.94039917 34.5173645 C112.65715177 35.21932047 111.37666124 35.92634712 110.09939575 36.63912964 C97.21119815 43.82812726 82.51092025 51.01058324 67.46337891 47.68530273 C57.04406642 44.70084623 47.78348156 39.7996173 38.22265625 34.78125 C36.47528766 33.87383209 34.72756347 32.96709864 32.97949219 32.06103516 C22.22787828 26.47432002 11.53635826 20.78447214 0.9453125 14.8984375 C-2.45041997 13.01887041 -5.87973728 11.22709462 -9.34375 9.4765625 C-10.23610352 9.0223291 -11.12845703 8.5680957 -12.04785156 8.10009766 C-13.73272941 7.24691898 -15.42320388 6.40466637 -17.12011719 5.57568359 C-17.85907227 5.20008301 -18.59802734 4.82448242 -19.359375 4.4375 C-20.01010986 4.11587891 -20.66084473 3.79425781 -21.33129883 3.46289062 C-23.28795178 1.93024776 -23.47533897 0.6881787 -23.83984375 -1.71875 C-14.81312415 -5.74853554 -8.5038095 -4.56688311 0 0 Z " fill="#60940F" transform="translate(46.83984375,106.71875)"/>
<path d="M0 0 C-1.34603482 4.03810445 -3.65336723 5.47295076 -7 8 C-7.66 8 -8.32 8 -9 8 C-8.66410006 4.86493389 -7.97334828 3.974751 -5.625 1.75 C-3 0 -3 0 0 0 Z " fill="#8FBE20" transform="translate(11,113)"/>
</svg>
